<svg id="color_line" height="512" viewBox="0 0 74 74" width="512" xmlns="http://www.w3.org/2000/svg" data-name="color line"><circle cx="37.125" cy="36.75" fill="#fbd873" r="34"/><path d="m71.12 36.75a34 34 0 0 1 -59.74 22.21 34 34 0 0 0 48.11-47.81 33.9 33.9 0 0 1 11.63 25.6z" fill="#edc45f"/><circle cx="37.125" cy="36.75" fill="#e1e6e9" r="27.288"/><path d="m37.125 64.538a27.788 27.788 0 1 1 27.788-27.788 27.819 27.819 0 0 1 -27.788 27.788zm0-54.575a26.788 26.788 0 1 0 26.788 26.787 26.818 26.818 0 0 0 -26.788-26.788z" fill="#323c6b"/><path d="m39.511 34.359 7.537-16.459.052-.125a8.419 8.419 0 0 1 9 9l-.125.062z" fill="#fbd873"/><path d="m39.511 34.859a.5.5 0 0 1 -.455-.708l7.583-16.567a.5.5 0 0 1 .42-.305 8.54 8.54 0 0 1 6.769 2.4 9.344 9.344 0 0 1 2.772 7.13.5.5 0 0 1 -.276.419l-.125.062-16.481 7.524a.5.5 0 0 1 -.207.045zm7.924-16.6-6.911 15.088 15.091-6.888a8.343 8.343 0 0 0 -2.486-6.065 7.546 7.546 0 0 0 -5.694-2.138z" fill="#323c6b"/><path d="m43.451 57.1.042.125a8.422 8.422 0 0 1 -12.735 0l.042-.125 6.32-16.971z" fill="#fbd873"/><path d="m37.276 60.634a9.344 9.344 0 0 1 -6.892-3.082.5.5 0 0 1 -.1-.491l.042-.125 6.326-16.982a.521.521 0 0 1 .937 0l6.33 16.966.006.017.042.125a.5.5 0 0 1 -.093.481 8.546 8.546 0 0 1 -6.488 3.09zm-5.946-3.534a8.321 8.321 0 0 0 6.044 2.531 7.54 7.54 0 0 0 5.55-2.522l-5.804-15.549z" fill="#323c6b"/><path d="m30.8 16.4-.042-.125a8.422 8.422 0 0 1 12.735 0l-.042.125-6.321 16.971z" fill="#fbd873"/><path d="m37.13 33.871a.5.5 0 0 1 -.468-.325l-6.331-16.966-.006-.017-.042-.125a.5.5 0 0 1 .093-.481 8.546 8.546 0 0 1 6.488-3.09 9.273 9.273 0 0 1 7 3.081.5.5 0 0 1 .1.49l-.042.125-6.322 16.982a.5.5 0 0 1 -.47.326zm-5.8-17.482 5.8 15.551 5.79-15.54a8.385 8.385 0 0 0 -6.043-2.531 7.541 7.541 0 0 0 -5.55 2.52z" fill="#323c6b"/><path d="m18.147 26.78a8.414 8.414 0 0 1 9-9l.052.125 7.537 16.457-16.464-7.52z" fill="#fbd873"/><path d="m34.739 34.859a.5.5 0 0 1 -.208-.045l-16.607-7.586a.5.5 0 0 1 -.275-.406 8.545 8.545 0 0 1 2.407-6.782 9.335 9.335 0 0 1 7.124-2.762.5.5 0 0 1 .432.306l.052.125 7.53 16.442a.5.5 0 0 1 -.455.708zm-16.113-8.4 15.1 6.892-6.908-15.087a8.289 8.289 0 0 0 -6.046 2.475 7.542 7.542 0 0 0 -2.146 5.716z" fill="#323c6b"/><path d="m34.739 39.141-7.539 16.459-.052.125a8.419 8.419 0 0 1 -9-9l.125-.062z" fill="#fbd873"/><path d="m26.425 56.253a8.5 8.5 0 0 1 -6-2.431 9.344 9.344 0 0 1 -2.774-7.131.5.5 0 0 1 .275-.418l.125-.062 16.484-7.524a.5.5 0 0 1 .662.663l-7.586 16.566a.5.5 0 0 1 -.42.305q-.386.032-.766.032zm-7.79-9.212a8.344 8.344 0 0 0 2.486 6.065 7.527 7.527 0 0 0 5.694 2.138l6.911-15.091z" fill="#323c6b"/><path d="m56.1 46.72a8.414 8.414 0 0 1 -9 9l-.052-.125-7.537-16.454 16.467 7.516z" fill="#fbd873"/><path d="m47.589 56.238q-.26 0-.519-.016a.5.5 0 0 1 -.432-.306l-.052-.125-7.53-16.442a.5.5 0 0 1 .662-.663l16.609 7.587a.5.5 0 0 1 .274.405 8.545 8.545 0 0 1 -2.407 6.782 9.337 9.337 0 0 1 -6.605 2.778zm-.157-1a8.209 8.209 0 0 0 6.046-2.475 7.543 7.543 0 0 0 2.145-5.717l-15.1-6.891z" fill="#323c6b"/><path d="m57.59 43.123-.125-.042-16.956-6.331 16.956-6.321.125-.042a8.408 8.408 0 0 1 0 12.736z" fill="#fbd873"/><path d="m57.59 43.623a.5.5 0 0 1 -.159-.026l-.125-.042-16.972-6.337a.5.5 0 0 1 0-.937l17.1-6.368a.5.5 0 0 1 .48.092 8.519 8.519 0 0 1 3.1 6.47 9.354 9.354 0 0 1 -3.092 7.025.5.5 0 0 1 -.332.123zm-15.651-6.873 15.534 5.8a8.35 8.35 0 0 0 2.538-6.061 7.515 7.515 0 0 0 -2.529-5.533z" fill="#323c6b"/><path d="m33.751 36.75-16.966 6.321-.125.042a8.408 8.408 0 0 1 0-12.735l.125.042z" fill="#fbd873"/><g fill="#323c6b"><path d="m16.66 43.612a.5.5 0 0 1 -.322-.118 8.519 8.519 0 0 1 -3.1-6.47 9.354 9.354 0 0 1 3.09-7.024.5.5 0 0 1 .492-.1l.125.042 16.982 6.337a.5.5 0 0 1 0 .937l-17.109 6.371a.5.5 0 0 1 -.158.025zm.117-12.663a8.352 8.352 0 0 0 -2.538 6.061 7.514 7.514 0 0 0 2.53 5.533l15.551-5.793z"/><path d="m13.586 65.888c-.34-.275-.633-.513-.918-.76a.5.5 0 0 1 .653-.757c.278.24.563.471.849.7l-.27.429z"/><path d="m10.84 63.25a.5.5 0 0 1 -.355-.148 37.815 37.815 0 0 1 -5.815-7.602.5.5 0 1 1 .865-.5 36.8 36.8 0 0 0 5.66 7.4.5.5 0 0 1 -.355.852z"/><path d="m59.083 7.493a.5.5 0 0 1 -.3-.1c-.3-.222-.608-.437-.916-.65a.5.5 0 0 1 .569-.822c.316.219.631.439.941.668a.5.5 0 0 1 -.3.9z"/><path d="m68.7 18a.5.5 0 0 1 -.427-.239 36.78 36.78 0 0 0 -6.524-7.93.5.5 0 1 1 .675-.737 37.753 37.753 0 0 1 6.7 8.145.5.5 0 0 1 -.424.761z"/><path d="m37.125 71.25a34.5 34.5 0 1 1 34.5-34.5 34.539 34.539 0 0 1 -34.5 34.5zm0-68a33.5 33.5 0 1 0 33.5 33.5 33.538 33.538 0 0 0 -33.5-33.5z"/></g></svg>